<?xml version="1.0" encoding="utf-8"?>
<!-- Generator: Adobe Illustrator 22.1.0, SVG Export Plug-In . SVG Version: 6.00 Build 0)  -->
<svg version="1.1" id="Layer_2" xmlns="http://www.w3.org/2000/svg" xmlns:xlink="http://www.w3.org/1999/xlink" x="0px" y="0px"
	 viewBox="0 0 1280 1024" style="enable-background:new 0 0 1280 1024;" xml:space="preserve">
<style type="text/css">
	.st0{fill:none;stroke:#000000;stroke-width:5;stroke-miterlimit:10;}
</style>
<polyline class="st0" points="730.5,410.5 730.5,395.5 585.5,377.5 587.5,535.5 730.5,518.5 730.5,503.5 "/>
<path d="M680,447h-15c0,0-2-17-22-17c0,0-25,2-24,29c0,0,4,26,25,24c0,0,16,2,21-15h15c0,0-2,29-36,29c0,0-38,0-40-37
	c0,0-1-41,38-43C642,417,676,415,680,447z"/>
<rect x="690" y="418" width="58" height="15"/>
<rect x="690" y="450" width="58" height="14"/>
<rect x="690" y="480" width="58" height="16"/>
<rect x="761" y="418" width="16" height="78"/>
<polygon points="812,418 777,454.9 777,473.3 787,463 814,496 834,496 798.5,452.5 831.5,418.5 "/>
<rect x="841" y="418" width="16" height="12"/>
<rect x="841" y="440" width="15" height="55"/>
</svg>
